<?xml version="1.0" encoding="UTF-8"?>
<svg version="1.1" xmlns="http://www.w3.org/2000/svg" width="430" height="429">
<path d="M0 0 C2.01274801 1.61152576 3.97489714 3.26359685 5.9375 4.9375 C6.94876953 5.77861328 6.94876953 5.77861328 7.98046875 6.63671875 C21.33414979 18.76809489 29.05709275 38.10837963 30.10595703 55.77490234 C30.94849057 78.01567265 29.36856963 104.30199185 13.9375 121.9375 C13.43347656 122.53175781 12.92945313 123.12601563 12.41015625 123.73828125 C10.61607461 125.8334106 8.78478906 127.88917127 6.9375 129.9375 C6.34066406 130.61296875 5.74382812 131.2884375 5.12890625 131.984375 C-0.13446403 137.6307348 -6.14405928 141.53149841 -13.0625 144.9375 C-13.7225 144.9375 -14.3825 144.9375 -15.0625 144.9375 C-11.97289513 148.303363 -8.30640679 149.75932109 -4.1875 151.5625 C8.05466071 157.13822765 18.22524738 164.61438604 27.9375 173.9375 C29.11119141 175.03384766 29.11119141 175.03384766 30.30859375 176.15234375 C53.91811899 198.80634014 60.88122031 229.84322809 61.55215454 261.42048645 C61.58779506 263.57184178 61.61905185 265.72327405 61.64599609 267.87475586 C61.68759503 271.13244191 61.75044478 274.38920926 61.81640625 277.64648438 C62.54773698 318.42985923 62.54773698 318.42985923 52.83203125 330.02734375 C43.73686269 339.19752401 30.88345041 339.08126735 18.85180664 339.14282227 C17.65109528 339.15272186 16.45038391 339.16262146 15.21328735 339.17282104 C11.93902525 339.19889865 8.6647678 339.22080569 5.39046407 339.24082303 C1.96181651 339.2627819 -1.46678814 339.29012187 -4.895401 339.31687927 C-11.37980795 339.36667293 -17.86423888 339.41166085 -24.34869248 339.45490164 C-31.73447416 339.50438836 -39.12021276 339.55926386 -46.50595272 339.61458123 C-61.69142828 339.72819652 -76.87694449 339.8350796 -92.0625 339.9375 C-92.07708252 340.68733154 -92.09166504 341.43716309 -92.10668945 342.2097168 C-92.18220151 345.68193723 -92.27851336 349.1533015 -92.375 352.625 C-92.39755859 353.80384766 -92.42011719 354.98269531 -92.44335938 356.19726562 C-92.81015887 368.36833976 -94.17434098 381.25720269 -102.625 390.6796875 C-109.43702443 397.01865468 -117.0479197 399.54755668 -126.21522522 399.44543457 C-127.52911347 399.45479451 -127.52911347 399.45479451 -128.86954492 399.46434355 C-131.78057938 399.48019385 -134.6907672 399.46770072 -137.60180664 399.45507812 C-139.69850652 399.46050274 -141.79520259 399.4676273 -143.89189148 399.47631836 C-149.5694961 399.49451298 -155.24680914 399.48750031 -160.92441869 399.47480202 C-166.87307712 399.46465575 -172.82171104 399.4740721 -178.77037048 399.48034668 C-188.7578478 399.48761776 -198.74520669 399.47804888 -208.73266602 399.45898438 C-220.27246749 399.4372108 -231.81198631 399.44427284 -243.35178095 399.46629 C-253.26880276 399.48445218 -263.18573958 399.48699846 -273.10277265 399.47653532 C-279.02183536 399.4703057 -284.94076528 399.46945038 -290.85981941 399.48268127 C-296.42413734 399.49425117 -301.98809138 399.48619286 -307.55237007 399.46310425 C-309.59212134 399.45782356 -311.63190333 399.45931995 -313.6716423 399.46815491 C-316.46042521 399.47911901 -319.24804896 399.46533636 -322.03675842 399.44543457 C-323.24159011 399.4588189 -323.24159011 399.4588189 -324.47076184 399.47247362 C-332.8497108 399.35683739 -339.16710946 395.5745347 -345.23828125 389.98046875 C-354.6417282 379.4494136 -354.37757811 365.43706573 -354.36328125 352.1328125 C-354.36718161 350.60317878 -354.37151896 349.07354612 -354.37626648 347.54391479 C-354.38369391 344.34499602 -354.38346563 341.14618762 -354.37817383 337.94726562 C-354.37356265 334.70851683 -354.38038576 331.47014524 -354.39868164 328.23144531 C-354.55840175 299.71367103 -353.46878191 272.77727238 -340.0625 246.9375 C-339.73233887 246.29393555 -339.40217773 245.65037109 -339.06201172 244.98730469 C-334.34032413 235.87269566 -329.28246429 228.31761137 -322.0625 220.9375 C-320.90869421 219.59011973 -319.76245261 218.23621378 -318.625 216.875 C-311.48084863 208.72902511 -303.4255447 202.34296911 -294.0625 196.9375 C-293.50433594 196.61394531 -292.94617188 196.29039062 -292.37109375 195.95703125 C-282.95031969 190.55302679 -273.31407432 186.49389372 -263.0625 182.9375 C-264.51269531 182.21046875 -264.51269531 182.21046875 -265.9921875 181.46875 C-274.08626347 177.33567139 -281.23631094 173.00408306 -288.0625 166.9375 C-289.2095975 165.97000713 -290.3567358 165.00256262 -291.50390625 164.03515625 C-307.78199755 149.98952609 -317.29841467 129.41687226 -319.0625 107.9375 C-320.53045405 79.50462802 -317.22332868 50.90644652 -297.67724609 28.69213867 C-292.60088688 23.15828436 -287.2692853 18.19728991 -281.0625 13.9375 C-280.46695313 13.50308594 -279.87140625 13.06867187 -279.2578125 12.62109375 C-257.45568751 -2.30353688 -226.90228515 -5.07638486 -201.53076172 -0.54077148 C-177.77271949 4.26431506 -157.22854041 17.38649089 -143.39453125 37.34375 C-140.0625 42.49579832 -140.0625 42.49579832 -140.0625 44.9375 C-137.30585838 42.56802715 -136.39444876 40.50228048 -135.3125 37.0625 C-128.24819681 16.95437107 -114.71832198 1.11718488 -95.69921875 -8.44775391 C-88.37788759 -11.95074428 -81.09315777 -14.66234209 -73.0625 -16.0625 C-71.5465625 -16.33320313 -71.5465625 -16.33320313 -70 -16.609375 C-44.19597063 -19.57888632 -20.83301592 -15.98207238 0 0 Z M-130.0625 114.9375 C-130.23265625 115.77152344 -130.4028125 116.60554687 -130.578125 117.46484375 C-132.07305422 124.4067225 -133.82249289 130.62279226 -137.0625 136.9375 C-137.48273438 137.81019531 -137.90296875 138.68289062 -138.3359375 139.58203125 C-141.46536886 145.76309042 -145.15546682 150.65713123 -149.92578125 155.671875 C-151.68210041 157.53415126 -153.2064799 159.40480276 -154.75 161.4375 C-162.55125367 170.57487999 -174.48049384 176.62891884 -185.0625 181.9375 C-183.7656753 184.53114939 -182.85742143 184.55731382 -180.16015625 185.48828125 C-179.35618408 185.77243896 -178.55221191 186.05659668 -177.72387695 186.34936523 C-176.86624756 186.64657471 -176.00861816 186.94378418 -175.125 187.25 C-168.18469415 189.72038828 -161.51286864 192.33922238 -155.0625 195.9375 C-153.72344733 194.1501038 -152.39140934 192.35745047 -151.0625 190.5625 C-150.32 189.56476563 -149.5775 188.56703125 -148.8125 187.5390625 C-146.8764515 185.18348283 -146.8764515 185.18348283 -147.0625 182.9375 C-146.17872681 182.54812256 -146.17872681 182.54812256 -145.27709961 182.15087891 C-142.90610227 180.8518097 -141.46537428 179.49699436 -139.62890625 177.5234375 C-138.98663086 176.84845215 -138.34435547 176.1734668 -137.68261719 175.47802734 C-137.00360352 174.76340332 -136.32458984 174.0487793 -135.625 173.3125 C-128.94590128 166.46786655 -122.59706056 161.36083467 -114.0625 156.9375 C-113.00933594 156.37675781 -111.95617187 155.81601563 -110.87109375 155.23828125 C-105.38675182 152.40344619 -99.8952739 149.95653712 -94.0625 147.9375 C-95.3690719 144.0177843 -96.69620888 143.86021258 -100.3125 142 C-111.20662325 135.83963269 -119.70193628 127.34066727 -126.57421875 116.921875 C-127.31091797 115.93960938 -127.31091797 115.93960938 -128.0625 114.9375 C-128.7225 114.9375 -129.3825 114.9375 -130.0625 114.9375 Z " fill="#000000" transform="translate(363.0625,30.0625)"/>
<path d="M0 0 C0.67417969 0.17160645 1.34835938 0.34321289 2.04296875 0.52001953 C22.61183192 5.91789896 42.53151731 18.38926867 57 34 C57.59167969 34.60972656 58.18335938 35.21945312 58.79296875 35.84765625 C87.39836747 66.33426108 89.72147926 107.5428958 90 147 C90.00647552 147.75773712 90.01295105 148.51547424 90.0196228 149.2961731 C90.03752911 151.57375373 90.04927151 153.85127559 90.05859375 156.12890625 C90.06344788 156.80985352 90.068302 157.49080078 90.07330322 158.19238281 C90.08803508 169.29403694 89.35189791 181.46780805 81.2109375 189.83984375 C71.27177864 197.93768433 59.95276908 197.45881961 47.8190918 197.47998047 C45.97517959 197.49392377 44.13127649 197.50911935 42.28738403 197.52546692 C37.29761584 197.56576008 32.30792904 197.58745596 27.31803489 197.60490561 C23.14331895 197.62134563 18.96868455 197.64728495 14.79401904 197.67330945 C4.93962127 197.73473609 -4.91476891 197.78147835 -14.76928711 197.81835938 C-24.91397297 197.85652081 -35.05836046 197.9163516 -45.20286494 197.98743331 C-53.93177995 198.0479995 -62.66070313 198.09654856 -71.38974255 198.13524354 C-76.59466023 198.15834075 -81.79946616 198.18554116 -87.00429726 198.22369003 C-91.90203752 198.25893841 -96.79961846 198.27902815 -101.69747543 198.28780174 C-103.48724345 198.29342292 -105.27700447 198.30416429 -107.0667057 198.32061577 C-131.63483761 198.53781363 -131.63483761 198.53781363 -141 191 C-141.86625 190.4225 -142.7325 189.845 -143.625 189.25 C-148.42714453 184.70059992 -150.83593775 178.53270374 -151.14044189 171.97590637 C-151.1472699 170.79252182 -151.1540979 169.60913727 -151.16113281 168.38989258 C-151.16609772 167.73386551 -151.17106262 167.07783844 -151.17617798 166.40193176 C-151.19076764 164.23278742 -151.19760218 162.06371661 -151.203125 159.89453125 C-151.20595238 159.14713873 -151.20877975 158.39974621 -151.21169281 157.62970543 C-151.22668544 153.66141788 -151.23590984 149.69316658 -151.24023438 145.72485352 C-151.24566764 141.67294671 -151.26958441 137.62138477 -151.29820633 133.56958485 C-151.31708086 130.41634755 -151.32205163 127.26318846 -151.32357025 124.10989952 C-151.32655033 122.6195357 -151.3344161 121.12917163 -151.34775543 119.63886452 C-151.59617547 89.70662149 -141.41228597 64.61842896 -125 40 C-123.515 39.505 -123.515 39.505 -122 39 C-120.53978577 37.34175352 -120.53978577 37.34175352 -119.1875 35.3125 C-116.3947534 31.45684239 -113.56357032 28.16761806 -110 25 C-109.01 25 -108.02 25 -107 25 C-107 24.01 -107 23.02 -107 22 C-105.52563477 20.66894531 -105.52563477 20.66894531 -103.44140625 19.328125 C-102.67175537 18.8319165 -101.90210449 18.33570801 -101.10913086 17.82446289 C-100.26874268 17.30489014 -99.42835449 16.78531738 -98.5625 16.25 C-97.27001343 15.44647095 -97.27001343 15.44647095 -95.95141602 14.62670898 C-67.51016949 -2.62582158 -32.36880941 -8.25802617 0 0 Z " fill="#FAF2F2" transform="translate(170,222)"/>
<path d="M0 0 C22.61263453 19.39184386 35.52387562 42.06271532 39.25 71.625 C39.55619461 75.91780421 39.66454628 80.20137234 39.734375 84.50390625 C39.7584845 85.67783432 39.78259399 86.85176239 39.80743408 88.06126404 C39.85534985 90.52245046 39.89881918 92.9837272 39.93798828 95.44506836 C39.99990758 99.18192253 40.08310085 102.91790158 40.16796875 106.65429688 C40.21222222 109.06247673 40.25523283 111.47067982 40.296875 113.87890625 C40.33575836 115.52941734 40.33575836 115.52941734 40.37542725 117.21327209 C40.52135005 128.47177338 40.02232422 138.88809139 32.25 147.625 C24.57021654 153.99758628 16.59993845 153.91244572 7.07250977 153.85205078 C5.25681236 153.85248886 5.25681236 153.85248886 3.4044342 153.85293579 C0.10320167 153.85178539 -3.19777733 153.84179024 -6.49896502 153.82778788 C-9.95560625 153.81524207 -13.41225126 153.81410699 -16.86891174 153.81173706 C-23.40649847 153.80553356 -29.94401791 153.78913814 -36.48157507 153.76903808 C-43.92777729 153.74664379 -51.3739828 153.73567679 -58.82021034 153.72564721 C-74.13017913 153.70477084 -89.44008087 153.66961697 -104.75 153.625 C-104.80403992 152.74515945 -104.85807983 151.86531891 -104.91375732 150.95881653 C-105.11893848 147.63966389 -105.32659226 144.3206839 -105.53582764 141.00178528 C-105.62525218 139.57559623 -105.71374037 138.1493481 -105.8012085 136.72303772 C-108.16777023 98.18515416 -118.69742175 69.51700945 -145.75 41.625 C-146.46800781 40.87863281 -147.18601563 40.13226563 -147.92578125 39.36328125 C-150.70723958 36.52226278 -153.44837368 33.8701059 -156.75 31.625 C-155.25560412 22.39872977 -149.44534021 15.94995364 -143.0625 9.5 C-142.20640137 8.62891602 -142.20640137 8.62891602 -141.33300781 7.74023438 C-137.13111086 3.625 -137.13111086 3.625 -133.75 3.625 C-133.75 2.635 -133.75 1.645 -133.75 0.625 C-131.55345274 -1.14013687 -129.42193787 -2.66847252 -127.0625 -4.1875 C-126.0418042 -4.85289795 -126.0418042 -4.85289795 -125.00048828 -5.53173828 C-86.26074358 -30.26134492 -35.92740125 -28.52758139 0 0 Z " fill="#FAF2F2" transform="translate(373.75,204.375)"/>
<path d="M0 0 C1.46759766 1.08087891 1.46759766 1.08087891 2.96484375 2.18359375 C8.11962099 6.12378112 8.11962099 6.12378112 10 8 C10 8.99 10 9.98 10 11 C10.99 11 11.98 11 13 11 C14.25512695 12.33837891 14.25512695 12.33837891 15.48828125 14.2265625 C16.17277344 15.26901123 16.17277344 15.26901123 16.87109375 16.33251953 C17.34675781 17.08903809 17.82242188 17.84555664 18.3125 18.625 C18.80234375 19.39827637 19.2921875 20.17155273 19.796875 20.96826172 C32.10341352 40.81949179 36.29971337 63.32961788 31.875 86.375 C31.30271927 88.59757865 30.67512758 90.80647228 30 93 C29.70198486 93.96993896 29.70198486 93.96993896 29.39794922 94.95947266 C25.12537898 108.46207479 18.30603558 118.25407505 8 128 C7.195625 128.845625 6.39125 129.69125 5.5625 130.5625 C-6.5754152 142.10832178 -20.76081215 148.49898143 -37 152 C-37.78890625 152.19078125 -38.5778125 152.3815625 -39.390625 152.578125 C-62.28895014 156.28024942 -84.1720512 149.80939657 -103 137 C-104.093125 136.319375 -105.18625 135.63875 -106.3125 134.9375 C-109 133 -109 133 -110 130 C-111.6609144 128.5757857 -111.6609144 128.5757857 -113.6875 127.25 C-127.47566596 117.11092236 -134.01124153 99.41373081 -137 83 C-140.61218269 57.90064233 -133.88255431 33.96786808 -119.25439453 13.48730469 C-114.99987428 7.80688256 -110.48646486 3.06149958 -104 0 C-103.34 0 -102.68 0 -102 0 C-101.82984375 -0.5775 -101.6596875 -1.155 -101.484375 -1.75 C-99.22968688 -5.16763252 -95.87324974 -6.3722433 -92.25 -8 C-91.49227295 -8.34812744 -90.7345459 -8.69625488 -89.95385742 -9.05493164 C-60.06981595 -22.41283234 -26.36740138 -19.61969365 0 0 Z " fill="#FAF2F2" transform="translate(191,55)"/>
<path d="M0 0 C7.31360941 7.24211087 12.63095527 15.01955488 16.54833984 24.53320312 C16.96212891 25.53222656 17.37591797 26.53125 17.80224609 27.56054688 C25.05501883 48.40910962 20.52529112 71.20714328 12.01318359 90.87304688 C10.54833984 93.53320312 10.54833984 93.53320312 7.54833984 95.53320312 C6.33415151 97.47981022 6.33415151 97.47981022 5.36083984 99.65820312 C4.84457031 100.74488281 4.84457031 100.74488281 4.31787109 101.85351562 C4.06392578 102.4078125 3.80998047 102.96210938 3.54833984 103.53320312 C2.55833984 103.53320312 1.56833984 103.53320312 0.54833984 103.53320312 C0.54833984 104.19320312 0.54833984 104.85320312 0.54833984 105.53320312 C-0.11166016 105.53320312 -0.77166016 105.53320312 -1.45166016 105.53320312 C-1.45166016 106.19320312 -1.45166016 106.85320312 -1.45166016 107.53320312 C-2.11166016 107.53320312 -2.77166016 107.53320312 -3.45166016 107.53320312 C-3.45166016 108.52320313 -3.45166016 109.51320312 -3.45166016 110.53320312 C-19.24319493 125.25533374 -41.36957339 128.44506051 -61.97119141 127.84179688 C-81.543879 126.91603939 -97.92511308 116.66665593 -111.20166016 102.72070312 C-125.90642131 85.65267678 -129.86302338 65.49627949 -128.45166016 43.53320312 C-126.32401663 25.43079347 -116.65531411 7.95185602 -102.8359375 -3.84619141 C-71.13673037 -28.86786468 -29.36373194 -28.03493839 0 0 Z " fill="#FAF2F2" transform="translate(361.45166015625,44.466796875)"/>
<path d="" fill="#FFFFFF" transform="translate(0,0)"/>
<path d="" fill="#FFFFFF" transform="translate(0,0)"/>
<path d="" fill="#FFFFFF" transform="translate(0,0)"/>
<path d="" fill="#FFFFFF" transform="translate(0,0)"/>
<path d="" fill="#FFFFFF" transform="translate(0,0)"/>
<path d="" fill="#FFFFFF" transform="translate(0,0)"/>
<path d="" fill="#FFFFFF" transform="translate(0,0)"/>
<path d="" fill="#FFFFFF" transform="translate(0,0)"/>
<path d="" fill="#FFFFFF" transform="translate(0,0)"/>
<path d="" fill="#FFFFFF" transform="translate(0,0)"/>
<path d="" fill="#FFFFFF" transform="translate(0,0)"/>
<path d="" fill="#FFFFFF" transform="translate(0,0)"/>
<path d="" fill="#FFFFFF" transform="translate(0,0)"/>
<path d="" fill="#FFFFFF" transform="translate(0,0)"/>
<path d="" fill="#FFFFFF" transform="translate(0,0)"/>
<path d="" fill="#FFFFFF" transform="translate(0,0)"/>
<path d="" fill="#FFFFFF" transform="translate(0,0)"/>
<path d="" fill="#FFFFFF" transform="translate(0,0)"/>
<path d="" fill="#FFFFFF" transform="translate(0,0)"/>
<path d="" fill="#FFFFFF" transform="translate(0,0)"/>
<path d="" fill="#FFFFFF" transform="translate(0,0)"/>
<path d="" fill="#FFFFFF" transform="translate(0,0)"/>
<path d="" fill="#FFFFFF" transform="translate(0,0)"/>
<path d="" fill="#FFFFFF" transform="translate(0,0)"/>
<path d="" fill="#FFFFFF" transform="translate(0,0)"/>
<path d="" fill="#FFFFFF" transform="translate(0,0)"/>
<path d="" fill="#FFFFFF" transform="translate(0,0)"/>
</svg>
